<?xml version="1.0" standalone="no"?><!DOCTYPE svg PUBLIC "-//W3C//DTD SVG 20010904//EN" "http://www.w3.org/TR/2001/REC-SVG-20010904/DTD/svg10.dtd"><svg version="1.0" xmlns="http://www.w3.org/2000/svg" width="512.000000pt" height="512.000000pt" viewBox="0 0 512.000000 512.000000" preserveAspectRatio="xMidYMid meet"><g transform="translate(0.000000,512.000000) scale(0.100000,-0.100000)" fill="#000000" stroke="none"><path d="M393 5106 c-186 -45 -345 -207 -382 -388 -8 -38 -11 -677 -9 -2183 l3 -2130 22 -60 c67 -175 220 -306 393 -335 46 -8 684 -10 2180 -8 l2115 3 68 27 c86 35 141 73 205 143 60 66 106 156 122 240 8 44 10 633 8 2180 l-3 2120 -23 59 c-64 169 -213 300 -380 335 -82 17 -4248 14 -4319 -3z m3405 -1272 c225 -46 403 -175 488 -353 50 -105 67 -201 61 -336 -6 -138 -25 -212 -92 -347 -105 -211 -193 -322 -689 -863 l-376 -410 640 -3 640 -2 0 -130 0 -130 -840 0 -840 0 0 115 0 115 462 512 c595 662 675 762 736 926 37 99 43 271 12 362 -43 129 -131 228 -237 269 -71 28 -221 38 -308 22 -33 -6 -92 -27 -131 -46 -136 -66 -214 -185 -243 -366 l-15 -99 -164 0 -163 0 6 58 c10 93 36 203 62 266 96 229 290 384 553 440 93 20 341 20 438 0z m-1658 -864 l0 -850 180 0 180 0 0 -130 0 -130 -177 -2 -178 -3 -3 -297 -2 -298 -160 0 -160 0 -2 298 -3 297 -583 3 -583 2 3 98 3 97 570 882 570 883 173 0 172 0 0 -850z"/><path d="M1796 3343 c-8 -16 -185 -297 -394 -625 l-381 -598 400 0 399 0 0 625 c0 344 -2 625 -5 625 -2 0 -11 -12 -19 -27z"/></g></svg>